<!DOCTYPE svg PUBLIC "-//W3C//DTD SVG 1.1//EN" "http://www.w3.org/Graphics/SVG/1.1/DTD/svg11.dtd">
<!-- Uploaded to: SVG Repo, www.svgrepo.com, Transformed by: SVG Repo Mixer Tools -->
<svg width="800px" height="800px" viewBox="0 0 512 512" id="Layer_1" version="1.1" xml:space="preserve" xmlns="http://www.w3.org/2000/svg" xmlns:xlink="http://www.w3.org/1999/xlink" fill="#000000">
<g id="SVGRepo_bgCarrier" stroke-width="0"/>
<g id="SVGRepo_tracerCarrier" stroke-linecap="round" stroke-linejoin="round"/>
<g id="SVGRepo_iconCarrier"> <style type="text/css"> .st0{fill:#000000;} .st1{fill:#000000;} </style> <g> <path class="st1" d="M161.6,237.5c3.6-1.2,7.5-1.8,11.4-1.8c6.3,0,12.5,1.6,17.9,4.5l13.5-13.5l25.4-25.4l21.2,21.2l34.3-34.3 l-4.4-4.8c19.5-36.7,16.5-83.1-11.2-117.5c-28-34.8-73.2-47.5-113.5-35.7l64.9,80.6l-64.2,51.7L92.2,81.9 c-20.1,36.9-17.3,83.8,10.7,118.5C118.4,219.7,139.2,232.2,161.6,237.5z"/> <path class="st1" d="M332.1,239.4L300,271.5l21.2,21.2l-37.1,37.1l-1.7,1.7L364.7,448c19.5,27.6,58.2,33,84.5,11.8 c26.3-21.2,29.3-60.1,6.5-85.1L332.1,239.4z"/> <path class="st1" d="M263.5,330.5L263.5,330.5L192,259v0l-2.4-2.4c-9.1-9.1-23.9-9.1-33,0L43.4,369.8c-9.1,9.1-9.1,23.9,0,33 l76.4,76.4c9.1,9.1,23.9,9.1,33,0L266,366c9.1-9.1,9.1-23.9,0-33L263.5,330.5z"/> <path class="st0" d="M471.7,110.9l-48.2,48.2c-5,5-13.2,5-18.2,0l-6.3-6.3L322.6,229l-42.5,42.4l21.2,21.2l-27.2,27.2l-0.8,0.8 l-4.1-4.1L206,253.2v0l-4.1-4.1l12.4-12.4l15.5-15.5l21.2,21.2l43.8-43.8l75-75l-6.3-6.3c-5-5.1-5-13.2,0-18.2l48.2-48.2 c5-5,13.2-5,18.2,0l41.8,41.8C476.7,97.7,476.7,105.8,471.7,110.9z"/> </g> </g>
</svg>